<svg xmlns="http://www.w3.org/2000/svg" viewBox="0 0 512 512" width="512" height="512">
  <defs>
    <linearGradient id="bg" x1="0%" y1="0%" x2="100%" y2="100%">
      <stop offset="0%" style="stop-color:#1a1a2e"/>
      <stop offset="100%" style="stop-color:#0a0a0f"/>
    </linearGradient>
    <linearGradient id="bell" x1="0%" y1="0%" x2="100%" y2="100%">
      <stop offset="0%" style="stop-color:#ffffff"/>
      <stop offset="100%" style="stop-color:#e0e0e0"/>
    </linearGradient>
  </defs>
  <!-- Background -->
  <rect width="512" height="512" rx="112" ry="112" fill="url(#bg)"/>
  <!-- Bell body -->
  <path d="M256 80 c-8 0-16 6-16 14 v10 c-48 12-80 56-80 108 v72 l-24 24 v12 h240 v-12 l-24-24 v-72 c0-52-32-96-80-108 v-10 c0-8-8-14-16-14z" 
        fill="none" stroke="url(#bell)" stroke-width="14" stroke-linejoin="round" stroke-linecap="round"/>
  <!-- Bell clapper -->
  <path d="M228 332 a28 20 0 0 0 56 0" fill="none" stroke="url(#bell)" stroke-width="14" stroke-linecap="round"/>
  <!-- Checkmark circle -->
  <circle cx="370" cy="160" r="48" fill="#10b981" stroke="#1a1a2e" stroke-width="8"/>
  <path d="M348 160 l16 16 l28-28" fill="none" stroke="white" stroke-width="10" stroke-linecap="round" stroke-linejoin="round"/>
  <!-- Subtle ring lines -->
  <circle cx="256" cy="256" r="220" fill="none" stroke="rgba(255,255,255,0.04)" stroke-width="1"/>
  <circle cx="256" cy="256" r="200" fill="none" stroke="rgba(255,255,255,0.03)" stroke-width="1"/>
</svg>
